<svg width="160" height="48" viewBox="0 0 160 48" fill="none" xmlns="http://www.w3.org/2000/svg">
<rect width="160" height="48" rx="8" fill="black"/>
<path d="M37.7568 24.3615C37.7697 23.36 38.0358 22.3779 38.5302 21.5068C39.0246 20.6357 39.7313 19.9037 40.5846 19.3791C40.0425 18.605 39.3274 17.9678 38.496 17.5184C37.6647 17.0689 36.7399 16.8195 35.7953 16.7899C33.7802 16.5783 31.8267 17.9957 30.7997 17.9957C29.7531 17.9957 28.1721 16.8109 26.4696 16.8459C25.3684 16.8815 24.2952 17.2017 23.3545 17.7754C22.4139 18.349 21.6378 19.1566 21.1021 20.1193C18.7813 24.1375 20.5124 30.0427 22.7356 33.2906C23.8479 34.8811 25.1477 36.6575 26.8487 36.5945C28.5131 36.5255 29.1347 35.5331 31.144 35.5331C33.1346 35.5331 33.7177 36.5945 35.4532 36.5545C37.2393 36.5255 38.3645 34.957 39.4378 33.3515C40.2369 32.2183 40.8519 30.9659 41.2599 29.6406C40.2222 29.2017 39.3367 28.4671 38.7138 27.5283C38.0908 26.5895 37.758 25.4882 37.7568 24.3615ZM34.4789 14.6538C35.4527 13.4847 35.9325 11.9821 35.8163 10.4651C34.3285 10.6213 32.9542 11.3324 31.9672 12.4566C31.4846 13.0058 31.115 13.6447 30.8795 14.3368C30.644 15.029 30.5473 15.7607 30.5948 16.4903C31.3389 16.4979 32.0751 16.3366 32.7479 16.0185C33.4207 15.7004 34.0126 15.2338 34.4789 14.6538ZM58.7969 32.5683H53.1168L51.7527 36.596H49.3468L54.7269 21.6944H57.2265L62.6066 36.596H60.1597L58.7969 32.5683ZM53.705 30.7096H58.2074L55.9879 24.173H55.9257L53.705 30.7096ZM74.2257 31.1644C74.2257 34.5405 72.4186 36.7096 69.6917 36.7096C69.0009 36.7458 68.3139 36.5867 67.7094 36.2505C67.1048 35.9143 66.6071 35.4147 66.2733 34.8088H66.2217V40.1901H63.9916V25.7316H66.1503V27.5386H66.1914C66.5405 26.9357 67.0466 26.4386 67.6557 26.1004C68.2649 25.7622 68.9543 25.5955 69.6507 25.6179C72.4081 25.6179 74.2257 27.7977 74.2257 31.1644ZM71.9335 31.1644C71.9335 28.9648 70.7968 27.5187 69.0625 27.5187C67.3585 27.5187 66.2125 28.9952 66.2125 31.1643C66.2125 33.3535 67.3585 34.8195 69.0625 34.8195C70.7968 34.8195 71.9335 33.3841 71.9335 31.1644ZM86.1834 31.1644C86.1834 34.5405 84.3765 36.7096 81.6495 36.7096C80.9587 36.7457 80.2717 36.5866 79.6672 36.2505C79.0626 35.9143 78.565 35.4147 78.2312 34.8088H78.1796V40.1901H75.9495V25.7316H78.108V27.5386H78.1491C78.4982 26.9357 79.0043 26.4386 79.6134 26.1004C80.2226 25.7622 80.912 25.5955 81.6084 25.6179C84.3659 25.6179 86.1834 27.7977 86.1834 31.1644ZM83.8913 31.1644C83.8913 28.9648 82.7546 27.5187 81.0202 27.5187C79.3162 27.5187 78.1702 28.9952 78.1702 31.1643C78.1702 33.3535 79.3162 34.8195 81.0202 34.8195C82.7546 34.8195 83.8913 33.3841 83.8913 31.1644ZM94.0866 32.4441C94.2518 33.9218 95.6874 34.8921 97.649 34.8921C99.5287 34.8921 100.881 33.9218 100.881 32.5893C100.881 31.4326 100.065 30.7401 98.1343 30.2655L96.2029 29.8003C93.4667 29.1393 92.1964 27.8596 92.1964 25.783C92.1964 23.2119 94.437 21.446 97.6186 21.446C100.767 21.446 102.926 23.2119 102.999 25.783H100.747C100.613 24.296 99.3834 23.3983 97.5869 23.3983C95.7905 23.3983 94.5612 24.3066 94.5612 25.6284C94.5612 26.682 95.3464 27.3019 97.267 27.7764L98.9088 28.1796C101.966 28.9026 103.237 30.1308 103.237 32.3103C103.237 35.0983 101.016 36.8444 97.4838 36.8444C94.179 36.8444 91.9478 35.1392 91.8037 32.444L94.0866 32.4441ZM108.049 23.1606V25.7316H110.115V27.4976H108.049V33.487C108.049 34.4175 108.463 34.8511 109.371 34.8511C109.617 34.8468 109.861 34.8296 110.105 34.7995V36.5551C109.697 36.6313 109.282 36.6658 108.866 36.658C106.667 36.658 105.809 35.8319 105.809 33.7249V27.4976H104.229V25.7316H105.809V23.1606H108.049ZM111.312 31.1644C111.312 27.746 113.325 25.598 116.465 25.598C119.615 25.598 121.619 27.746 121.619 31.1644C121.619 34.5921 119.625 36.7307 116.465 36.7307C113.305 36.7307 111.312 34.5921 111.312 31.1644ZM119.346 31.1644C119.346 28.8195 118.272 27.4354 116.465 27.4354C114.658 27.4354 113.584 28.83 113.584 31.1644C113.584 33.5187 114.658 34.8921 116.465 34.8921C118.272 34.8921 119.346 33.5187 119.346 31.1644ZM123.457 25.7316H125.584V27.5808H125.636C125.78 27.0032 126.118 26.4928 126.594 26.1354C127.07 25.7779 127.654 25.5952 128.249 25.6179C128.506 25.617 128.762 25.6449 129.013 25.7011V27.787C128.689 27.6879 128.35 27.6424 128.011 27.6523C127.687 27.6391 127.364 27.6962 127.064 27.8197C126.765 27.9432 126.495 28.1301 126.274 28.3675C126.053 28.605 125.887 28.8874 125.785 29.1954C125.684 29.5034 125.651 29.8297 125.687 30.1519V36.596H123.457V25.7316ZM139.295 33.4049C138.995 35.3773 137.074 36.7307 134.617 36.7307C131.456 36.7307 129.495 34.6132 129.495 31.2159C129.495 27.8082 131.467 25.598 134.523 25.598C137.529 25.598 139.419 27.6628 139.419 30.9569V31.721H131.746V31.8557C131.71 32.2556 131.761 32.6584 131.893 33.0374C132.025 33.4164 132.236 33.763 132.513 34.054C132.789 34.3451 133.124 34.574 133.496 34.7256C133.868 34.8771 134.267 34.9479 134.668 34.9331C135.195 34.9825 135.724 34.8605 136.176 34.5851C136.629 34.3098 136.98 33.8959 137.178 33.4049H139.295ZM131.756 30.1624H137.188C137.208 29.8029 137.154 29.4431 137.028 29.1057C136.902 28.7682 136.708 28.4604 136.458 28.2014C136.208 27.9425 135.907 27.7381 135.574 27.601C135.241 27.464 134.883 27.3972 134.523 27.405C134.16 27.4028 133.8 27.4726 133.464 27.6103C133.128 27.748 132.822 27.9509 132.565 28.2072C132.308 28.4636 132.104 28.7684 131.965 29.1039C131.826 29.4395 131.755 29.7993 131.756 30.1624ZM53.4255 10.4779C53.8931 10.4444 54.3623 10.515 54.7992 10.6847C55.2361 10.8544 55.63 11.119 55.9523 11.4594C56.2746 11.7997 56.5173 12.2074 56.663 12.6529C56.8087 13.0985 56.8536 13.5708 56.7947 14.0358C56.7947 16.3232 55.5583 17.6382 53.4255 17.6382H50.8392V10.4778L53.4255 10.4779ZM51.9513 16.6255H53.3013C53.6354 16.6455 53.9697 16.5907 54.28 16.4651C54.5902 16.3396 54.8685 16.1464 55.0947 15.8998C55.3209 15.6531 55.4892 15.3591 55.5875 15.0392C55.6857 14.7192 55.7114 14.3814 55.6626 14.0503C55.7078 13.7205 55.6796 13.3848 55.5798 13.0672C55.4801 12.7496 55.3114 12.458 55.0857 12.2133C54.86 11.9686 54.583 11.7768 54.2745 11.6517C53.966 11.5266 53.6337 11.4713 53.3013 11.4898H51.9513V16.6255ZM58.0509 14.934C58.0169 14.5789 58.0576 14.2206 58.1702 13.8821C58.2828 13.5436 58.4649 13.2324 58.7048 12.9684C58.9447 12.7045 59.2372 12.4935 59.5634 12.3492C59.8896 12.2049 60.2424 12.1303 60.5991 12.1303C60.9558 12.1303 61.3086 12.2049 61.6349 12.3492C61.9611 12.4935 62.2535 12.7045 62.4935 12.9684C62.7334 13.2324 62.9155 13.5436 63.0281 13.8821C63.1407 14.2206 63.1813 14.5789 63.1473 14.934C63.182 15.2895 63.142 15.6484 63.0297 15.9875C62.9174 16.3266 62.7355 16.6384 62.4955 16.903C62.2555 17.1676 61.9628 17.379 61.6362 17.5237C61.3096 17.6684 60.9563 17.7431 60.5991 17.7431C60.2419 17.7431 59.8887 17.6684 59.5621 17.5237C59.2355 17.379 58.9428 17.1676 58.7028 16.903C58.4628 16.6384 58.2808 16.3266 58.1685 15.9875C58.0563 15.6484 58.0162 15.2895 58.0509 14.934ZM62.0505 14.934C62.0505 13.7627 61.5243 13.0777 60.6009 13.0777C59.6739 13.0777 59.1525 13.7627 59.1525 14.934C59.1525 16.1147 59.674 16.7943 60.6009 16.7943C61.5243 16.7943 62.0505 16.11 62.0505 14.934ZM69.922 17.6381H68.8156L67.6989 13.6584H67.6145L66.5025 17.6381H65.4068L63.9174 12.2345H64.9989L65.967 16.3577H66.0466L67.1576 12.2345H68.1806L69.2915 16.3577H69.3759L70.3391 12.2345H71.4056L69.922 17.6381ZM72.6583 12.2346H73.6849V13.093H73.7645C73.8997 12.7846 74.1277 12.5262 74.4168 12.3536C74.7058 12.181 75.0415 12.1029 75.3771 12.1302C75.64 12.1104 75.904 12.1501 76.1495 12.2462C76.395 12.3423 76.6158 12.4924 76.7954 12.6855C76.975 12.8785 77.1089 13.1094 77.1871 13.3612C77.2654 13.613 77.286 13.8791 77.2474 14.1399V17.6379H76.181V14.4078C76.181 13.5395 75.8036 13.1076 75.0149 13.1076C74.8364 13.0993 74.6582 13.1297 74.4926 13.1967C74.3269 13.2637 74.1777 13.3657 74.0552 13.4958C73.9326 13.6258 73.8396 13.7808 73.7826 13.9502C73.7256 14.1195 73.7058 14.2992 73.7247 14.4769V17.6381H72.6583V12.2346ZM78.9466 10.1251H80.0129V17.6381H78.9466V10.1251ZM81.4954 14.934C81.4614 14.5788 81.502 14.2205 81.6147 13.882C81.7273 13.5434 81.9094 13.2322 82.1494 12.9682C82.3893 12.7042 82.6818 12.4932 83.0081 12.3489C83.3343 12.2045 83.6872 12.1299 84.0439 12.1299C84.4007 12.1299 84.7536 12.2045 85.0798 12.3489C85.4061 12.4932 85.6986 12.7042 85.9385 12.9682C86.1785 13.2322 86.3606 13.5434 86.4733 13.882C86.5859 14.2205 86.6265 14.5788 86.5925 14.934C86.627 15.2895 86.5868 15.6482 86.4745 15.9872C86.3621 16.3262 86.1801 16.638 85.9401 16.9024C85.7 17.1669 85.4074 17.3782 85.0808 17.5228C84.7543 17.6674 84.4011 17.7421 84.0439 17.7421C83.6868 17.7421 83.3336 17.6674 83.0071 17.5228C82.6805 17.3782 82.3879 17.1669 82.1478 16.9024C81.9078 16.638 81.7258 16.3262 81.6134 15.9872C81.5011 15.6482 81.4609 15.2895 81.4954 14.934ZM85.495 14.934C85.495 13.7627 84.9688 13.0777 84.0454 13.0777C83.1184 13.0777 82.597 13.7627 82.597 14.934C82.597 16.1147 83.1185 16.7943 84.0454 16.7943C84.9688 16.7943 85.495 16.11 85.495 14.934ZM87.7151 16.11C87.7151 15.1373 88.4393 14.5765 89.7249 14.4968L91.1885 14.4125V13.946C91.1885 13.3753 90.8112 13.0531 90.0823 13.0531C89.487 13.0531 89.0744 13.2716 88.9561 13.6537H87.9237C88.0326 12.7255 88.9057 12.1303 90.1315 12.1303C91.4862 12.1303 92.2502 12.8047 92.2502 13.946V17.6381H91.2236V16.8787H91.1393C90.968 17.1511 90.7276 17.3731 90.4424 17.5222C90.1573 17.6712 89.8377 17.742 89.5163 17.7271C89.2895 17.7507 89.0602 17.7265 88.8433 17.6561C88.6264 17.5856 88.4266 17.4705 88.2569 17.3181C88.0872 17.1658 87.9513 16.9796 87.858 16.7715C87.7647 16.5634 87.716 16.338 87.7151 16.11ZM91.1885 15.6482V15.1964L89.869 15.2808C89.1249 15.3306 88.7873 15.5838 88.7873 16.0601C88.7873 16.5464 89.2092 16.8295 89.7893 16.8295C89.9593 16.8467 90.131 16.8296 90.2942 16.779C90.4574 16.7285 90.6088 16.6457 90.7393 16.5355C90.8699 16.4253 90.9769 16.2899 91.0541 16.1375C91.1312 15.9851 91.1769 15.8187 91.1885 15.6482ZM93.6518 14.934C93.6518 13.2265 94.5295 12.145 95.8948 12.145C96.2325 12.1294 96.5676 12.2103 96.8611 12.3781C97.1545 12.546 97.3941 12.7939 97.5518 13.093H97.6315V10.125H98.6978V17.6379H97.676V16.7841H97.5917C97.4218 17.0811 97.1738 17.326 96.8748 17.4922C96.5757 17.6584 96.2368 17.7396 95.8949 17.727C94.5202 17.727 93.6518 16.6454 93.6518 14.934ZM94.7534 14.934C94.7534 16.08 95.2937 16.7697 96.197 16.7697C97.0958 16.7697 97.6514 16.0701 97.6514 14.9385C97.6514 13.8125 97.0901 13.1029 96.197 13.1029C95.2994 13.1029 94.7534 13.7972 94.7534 14.934ZM103.11 14.934C103.076 14.5789 103.117 14.2206 103.229 13.8821C103.342 13.5436 103.524 13.2324 103.764 12.9684C104.004 12.7045 104.296 12.4935 104.622 12.3492C104.949 12.2049 105.301 12.1303 105.658 12.1303C106.015 12.1303 106.368 12.2049 106.694 12.3492C107.02 12.4935 107.313 12.7045 107.552 12.9684C107.792 13.2324 107.975 13.5436 108.087 13.8821C108.2 14.2206 108.24 14.5789 108.206 14.934C108.241 15.2895 108.201 15.6484 108.089 15.9875C107.977 16.3266 107.795 16.6384 107.555 16.903C107.315 17.1676 107.022 17.379 106.695 17.5237C106.369 17.6684 106.015 17.7431 105.658 17.7431C105.301 17.7431 104.948 17.6684 104.621 17.5237C104.295 17.379 104.002 17.1676 103.762 16.903C103.522 16.6384 103.34 16.3266 103.228 15.9875C103.115 15.6484 103.075 15.2895 103.11 14.934ZM107.11 14.934C107.11 13.7627 106.583 13.0777 105.66 13.0777C104.733 13.0777 104.212 13.7627 104.212 14.934C104.212 16.1147 104.733 16.7943 105.66 16.7943C106.583 16.7943 107.11 16.11 107.11 14.934ZM109.637 12.2346H110.664V13.093H110.744C110.879 12.7846 111.107 12.5262 111.396 12.3536C111.685 12.181 112.021 12.1029 112.356 12.1302C112.619 12.1104 112.883 12.1501 113.129 12.2462C113.374 12.3423 113.595 12.4924 113.774 12.6855C113.954 12.8785 114.088 13.1094 114.166 13.3612C114.244 13.613 114.265 13.8791 114.226 14.1399V17.6379H113.16V14.4078C113.16 13.5395 112.783 13.1076 111.994 13.1076C111.815 13.0993 111.637 13.1297 111.472 13.1967C111.306 13.2637 111.157 13.3657 111.034 13.4958C110.912 13.6258 110.819 13.7808 110.762 13.9502C110.705 14.1195 110.685 14.2992 110.704 14.4769V17.6381H109.637L109.637 12.2346ZM120.252 10.8893V12.2592H121.423V13.1574H120.252V15.9359C120.252 16.5019 120.485 16.7498 121.016 16.7498C121.152 16.7493 121.288 16.7411 121.423 16.7251V17.6135C121.231 17.6477 121.037 17.6659 120.843 17.6679C119.657 17.6679 119.185 17.2507 119.185 16.209V13.1574H118.327V12.2591H119.185V10.8894L120.252 10.8893ZM122.879 10.1251H123.937V13.1029H124.021C124.163 12.7917 124.397 12.5318 124.692 12.3586C124.987 12.1853 125.328 12.1072 125.668 12.1349C125.93 12.1206 126.192 12.1643 126.434 12.2628C126.677 12.3612 126.895 12.512 127.073 12.7045C127.251 12.8969 127.384 13.1261 127.463 13.3759C127.541 13.6257 127.564 13.8898 127.529 14.1494V17.6381H126.462V14.4125C126.462 13.5493 126.06 13.1123 125.306 13.1123C125.123 13.0973 124.939 13.1225 124.766 13.1861C124.594 13.2498 124.437 13.3504 124.308 13.4809C124.178 13.6113 124.079 13.7686 124.016 13.9415C123.954 14.1145 123.93 14.299 123.946 14.4822V17.6381H122.879V10.1251ZM133.747 16.179C133.603 16.6729 133.289 17.1001 132.861 17.3859C132.433 17.6716 131.918 17.7978 131.406 17.7423C131.05 17.7517 130.696 17.6836 130.369 17.5425C130.042 17.4015 129.75 17.191 129.512 16.9256C129.275 16.6603 129.098 16.3464 128.994 16.0058C128.89 15.6652 128.861 15.3061 128.91 14.9533C128.863 14.5994 128.892 14.2395 128.995 13.8979C129.099 13.5563 129.275 13.2409 129.511 12.9732C129.748 12.7055 130.039 12.4917 130.365 12.3463C130.691 12.2008 131.044 12.1271 131.401 12.1302C132.905 12.1302 133.812 13.1574 133.812 14.8542V15.2263H129.996V15.2861C129.98 15.4844 130.004 15.684 130.069 15.8721C130.134 16.0601 130.238 16.2326 130.373 16.3783C130.509 16.5241 130.673 16.6399 130.856 16.7184C131.039 16.7969 131.236 16.8363 131.435 16.8341C131.69 16.8647 131.949 16.8188 132.178 16.7021C132.407 16.5855 132.596 16.4034 132.721 16.179H133.747ZM129.996 14.4377H132.726C132.739 14.2563 132.714 14.0742 132.653 13.9029C132.592 13.7316 132.496 13.5751 132.37 13.4432C132.245 13.3114 132.094 13.2072 131.926 13.1374C131.758 13.0676 131.577 13.0337 131.395 13.0379C131.211 13.0356 131.028 13.0702 130.857 13.1397C130.686 13.2092 130.531 13.3123 130.401 13.4427C130.27 13.5732 130.167 13.7284 130.098 13.8993C130.028 14.0702 129.994 14.2532 129.996 14.4377Z" fill="white"/>
</svg>
