<?xml version="1.0" encoding="UTF-8"?>
<svg id="Ebene_1" data-name="Ebene 1" xmlns="http://www.w3.org/2000/svg" version="1.1" viewBox="0 0 113.4 113.4">
  <defs>
    <style>
      .cls-1 {
        fill: #fdcc03;
      }

      .cls-1, .cls-2, .cls-3, .cls-4 {
        stroke-width: 0px;
      }

      .cls-2 {
        fill: #010101;
      }

      .cls-3 {
        fill: #878787;
      }

      .cls-5 {
        opacity: .5;
      }

      .cls-4 {
        fill: #e50303;
      }
    </style>
  </defs>
  <g class="cls-5">
    <path class="cls-2" d="M28.1,23.5c7.1-1.3,13.8-3.9,20.4-6.4,7.1-2.8,14.2-3.3,21.5-2.3,1.6.2,3.2.4,4.9-.2C96.9,5.4,118.8-3.7,140.7-12.8c-.2-8-3.6-12.7-12.3-12.7l.3-1.3c17.1-5.9,34.2-11.8,51.8-17.9,2.6,5.6,5.1,11.1,7.8,16.6.9,1.7-.4,2.5-1.2,3.4-2.2,2.5-4.5,4.9-7.6,8.2,10.2-.5,19.2,2.3,27.9-5.1,11.7-10.1,24.8-18.6,37.2-27.9,2.2-1.6,4.5-2.6,7.2-2.9,19.6-2,39.1-4.1,58.6-6.1,1.5-.2,2.9-.4,4.3-1.1,7.9-4.2,15.8-8.6,25-10.3-.8-17,4.1-31.8,15.4-44.2,8.8-9.7,19.6-16,32.5-18.3,27.5-5.1,53.6,8.1,65.4,32.9,11.3,23.6,5.4,52.2-14.2,69.8-17.2,15.4-49.1,23.7-78.5,1-4.6,1.8-8.1,5.3-13.2,6.6-9.8,2.6-18.6,1.7-26.9-4-5.2-3.7-9.9-2.9-15.5-.1C278.3-13.2,251.8-.3,225.1,12.2c-10.9,5.1-23,6.4-34.7,8.9-9.7,2-17.9,6-25.6,12.4-28.3,23.5-57,46.6-85.7,69.7-2.8,2.2-4.2,4.5-3.4,8,.8,3.5-.8,5.4-3.5,7.3-10.7,7.7-21.2,15.5-32.3,23.7,2.9,3.2,5.3,6.6,8.3,9.3,3.4,3.1,4.3,6.3,2,10.4-.6,1.1-.8,2.5-1.1,3.5,7.3,7.2,15.3,7.3,24.8,5.6,8.5-1.5,12.4-4.6,14.2-13,1.9-9,8.4-14.4,17.7-16.4,7.2-1.5,13.4-.6,20,2.8,21,11,44,16.9,66.2,25.1,7.1,2.6,13,7,18.3,11.9,3.6,3.3,3.6,9.3,2.2,14.1-2.4,8.2-12.8,13.9-21.4,12.6-24-3.8-48-7.6-72-11.4-2.5-.4-4.4.1-6.4,1.7-17.8,13.8-36.3,26.5-53.6,40.9-1,.8-2.1,1.8-3.3,2.1-9.8,2.1-19.5,4.6-29.3,5.9-5.2.7-10.4-2.1-15.5-3.5-3.6-1-6.5-.8-9.8,1.2-4.1,2.5-8.2,7.1-12.6,6.3-4-.8-7.2-5.5-10.8-8.5-23.7-20.5-47.4-40.9-71-61.6-5.5-4.8-11.4-8.6-17.8-12-18.4-9.7-34.8-22.1-49.9-36.3-9.7-9.1-19.9-17.8-29.9-26.6-1.6-1.4-3.4-2.7-5.3-3.7-16-9.2-32.1-18.3-48-27.7-2.7-1.6-4.6-1.4-7.2,0-14,8.3-28.2,16.4-42.3,24.6-1.4.8-2.7,2.4-4.5,1.1-3.4-2.5-5.5-.3-8.2,1.6-10.8,7.3-16.9,17.1-20.9,29.6-10,31.2-21.2,62-32.2,92.9-2.8,8-1.8,16.1-1.9,24.2,0,3.2-.8,5.6-3.2,7.9-6.2,5.8-12.2,11.8-18.7,18-5.3-4.1-10.9-8.5-16.5-12.9-.3-.2-.6-.4-.8-.6-2-2.6-2.6-22.9-.8-25.6,5.8-8.6,11.3-17.3,17.4-25.6,2.9-4,4-8.2,4.4-12.9,2.6-31.2,5.4-62.4,8.1-93.6.2-2.2,1.1-3.8,2.5-5.2,4-4.1,7.2-8.7,8.1-14.5.3-2.1,1.8-3.5,2.9-5.1,13.2-18,26.5-35.9,39.8-53.9,1-1.3,1.9-2.7,3.2-4.5-3.8-.8-7.1-1.4-10.4-2.1-.7-1.6.6-2.5,1.2-3.6,1.6-2.7,3.6-5.3,4.9-8.1,9-18.3,22.6-32.2,41.3-42.2,2.1,1.4,5.1,3.1,7.8,5.2,2.5,1.9,4.4,1.9,7.1.1,4.4-2.9,9.1-5.4,14.3-8.4-4.8-3-11.2-3.3-12.8-10.2,4.3-3.3,9.1-6.8,14.3-10.7-3.7-6.5-7-13.5-11.4-19.9-8-11.5-10.6-24.2-12.2-37.8-1.3-11.3,5.3-19.2,8.5-28.5.3-.8,1.5-1.3,2.3-1.8,2.2-1.4,4.7-2.6,6.7-4.3,11.5-9.7,25.3-11.7,39.5-12.8,4.1-.3,7.1,2.5,10.8,3.4,8.9,2.2,14.3,8.1,19.3,15.7,5,7.6,6.9,14.7,3.9,23.1-.8,2.3-.7,4.5.8,6.6,7,9.8,10.2,20.7,9.7,32.8,0,1.3-.1,2.7,1.2,4.2,11.4-1.2,23.1-2.5,34.9-3.8,22.3-2.5,44.7-4.9,67-7.5,4.8-.6,9.2.7,13.8,1.7,21.4,5,42.8,10,64.1,15,8,1.9,15.5-1,23.1-2.3,4.9-.8,7.5,0,9.7,4.6,3.1,6.6,6.9,12.9,10.3,19.1-2.4,6.4-12.8,9-7.2,18.6-13.5,3-24.9.4-34.4-9.3-1.6-1.6-3.1-2.7-5.5-2.8-19.6-1.3-39.2-2.9-58.8-4-4.5-.2-9.2,1.2-13.7,1.9q-1,7-7.1,11.2c-8,5.5-15.9,11-23.9,16.3-2.2,1.4-2.7,2.7-1.9,5.2,2.4,7.6,2.6,17,7.3,22.5,5.7,6.6,15,10.2,23,14.6,3.7,2.1,8,1.5,12.2,1.1C-24.2,19.5,5.1,10.9,34.5,3.1c1.7-.5,3.4-.8,6-1.5-4.6,7.6-8.7,14.6-12.8,21.5-.1.3-.4.9-.4.9.5.3.7,0,.8-.5ZM-250.6-95.1c3.9,7.7,8,14.2,10.6,21.3,3.4,9.4,11.5,12.4,19.2,16.8-.3-7.3-1.6-13.7-7.7-17.9,1.7-2.6,3.1-4.8,4.5-7.1-1.8-2.9-3.5-5.7-5.4-8.4-1-1.4-1.1-2.4,0-4,4.4-6.6,4.3-7.7-.2-14.1-6.8,4.6-8.2,16.7-20.9,13.4Z"/>
    <path class="cls-3" d="M354.3-147.6c-9.5,5.9-17.5,13.6-24.8,22.6-7.9-11-15.6-21.4-24.1-31.1-49.1-55.7-109.9-91.3-182.7-106.5-28.4-5.9-57.1-7.7-86-5.8-74.6,5.1-140.2,32.4-196.4,81.7-3.3,2.9-6.4,5.8-9.6,8.8-1.3,1.2-2.5,2.1-4.3.8-8.5-6-17.1-12-25.7-18.1,151.3-158.2,424.7-141.4,553.5,47.6Z"/>
    <path class="cls-3" d="M315.3,261c56.9-74.4,78.8-157.8,66.9-250.7,11.3,1.6,22.3,1.8,34.1-.2,11.6,100.8-12.7,191-74.4,271.8-9-7.1-17.5-13.8-26.6-20.9Z"/>
    <path class="cls-4" d="M-31.3,373.4c59.6,16.2,118.6,16.2,178.2,0,3,10.6,6.1,21.3,9.3,32.5-65.7,18-130.9,18-196.6,0,3.1-11,6.1-21.5,9.2-32.5Z"/>
    <path class="cls-3" d="M-265.4,114.4c9.8,54.6,31.7,103.2,65.7,146.7-8.8,6.9-17.4,13.7-26.6,21-4-5.4-8-10.5-11.6-15.7-28.7-40.9-48.3-85.7-58.6-134.6-.7-3.5,0-5,3.3-6.3,9.2-3.4,18.2-7.2,27.9-11.1Z"/>
    <path class="cls-2" d="M-55.6,365.5c-4,10.7-7.8,21-11.7,31.7-54.4-20.2-100.9-51.4-140.6-93.8,8.4-7.7,16.4-15.2,24.8-22.9,35.8,38.2,78,66.6,127.5,85.1Z"/>
    <path class="cls-1" d="M298.6,280.3c8.3,7.7,16.3,15.1,24.8,22.9-39.4,42.3-85.9,73.4-140.5,94-3.9-10.6-7.7-20.9-11.7-31.7,24.5-9.3,47.3-20.8,68.6-35.1,21.4-14.3,40.8-31,58.7-50.1Z"/>
  </g>
</svg>