<svg width="160" height="48" viewBox="0 0 160 48" fill="none" xmlns="http://www.w3.org/2000/svg">
<rect width="160" height="48" rx="8" fill="black"/>
<path d="M56.8102 12.2912C56.8102 13.2965 56.513 14.097 55.9177 14.6942C55.2416 15.4043 54.3604 15.7596 53.2771 15.7596C52.2397 15.7596 51.3576 15.3997 50.6323 14.6787C49.9056 13.9583 49.543 13.065 49.543 11.9992C49.543 10.9329 49.9056 10.0401 50.6323 9.3191C51.3576 8.59877 52.2397 8.23828 53.2771 8.23828C53.7918 8.23828 54.2847 8.33912 54.7526 8.54021C55.2205 8.74178 55.5958 9.00936 55.8766 9.34445L55.2448 9.97764C54.769 9.40819 54.1138 9.12368 53.2771 9.12368C52.5205 9.12368 51.8663 9.38996 51.3141 9.92285C50.7619 10.4563 50.4858 11.148 50.4858 11.9992C50.4858 12.8504 50.7619 13.5421 51.3141 14.0756C51.8663 14.6085 52.5204 14.8747 53.2771 14.8747C54.0797 14.8747 54.7489 14.607 55.2846 14.0709C55.6324 13.7216 55.8335 13.2361 55.8873 12.6127H53.277V11.7479H56.76C56.7937 11.936 56.8101 12.1164 56.8101 12.2912" fill="white"/>
<path d="M56.8096 12.2925H56.6898C56.6888 13.275 56.4023 14.0381 55.8323 14.6109L55.831 14.6119L55.8305 14.6129C55.1758 15.2985 54.3342 15.6398 53.276 15.6413C52.2662 15.6398 51.421 15.2948 50.7152 14.5954C50.011 13.8947 49.6627 13.0391 49.6614 12.0004C49.6627 10.9612 50.011 10.1062 50.7152 9.40593C51.421 8.70607 52.2662 8.36059 53.276 8.35913C53.7754 8.35913 54.251 8.45675 54.7044 8.65122C55.1583 8.84721 55.5169 9.10403 55.7841 9.42287L55.8758 9.34542L55.7912 9.26059L55.1593 9.89428L55.244 9.97868L55.3363 9.90188C54.8382 9.30417 54.1392 9.00285 53.2761 9.00463C52.4914 9.00366 51.801 9.28453 51.23 9.8377C50.6535 10.3927 50.3638 11.1234 50.3648 12.0004C50.3638 12.8775 50.6535 13.6082 51.23 14.1632C51.801 14.7164 52.4914 14.9972 53.276 14.9962C54.1053 14.9977 54.8121 14.7159 55.3685 14.1572C55.7401 13.784 55.9508 13.2671 56.006 12.6243L56.0171 12.494H53.3959V11.8692H56.7594V11.7492L56.6414 11.7703C56.6742 11.9522 56.6897 12.1251 56.6897 12.2925H56.9293C56.9293 12.1101 56.9124 11.9227 56.8773 11.7277L56.8596 11.6292H53.1563V12.734H55.8866V12.614L55.7673 12.6037C55.7144 13.2075 55.5225 13.6622 55.1991 13.9876C54.6843 14.5013 54.0525 14.7548 53.2761 14.7563C52.5475 14.7553 51.9293 14.504 51.3962 13.9908C50.8684 13.4793 50.6058 12.8264 50.6044 12.0004C50.6058 11.1745 50.8684 10.5215 51.3962 10.0101C51.9293 9.49686 52.5474 9.2456 53.2761 9.24463C54.0862 9.24657 54.698 9.51466 55.1524 10.0561L55.2367 10.1564L55.9606 9.43031L56.0383 9.35254L55.9676 9.26852C55.6732 8.91705 55.281 8.63807 54.799 8.43097C54.3161 8.22323 53.8064 8.11914 53.2761 8.11914C52.211 8.11823 51.2919 8.49321 50.5463 9.2353C49.798 9.97593 49.4209 10.9069 49.4219 12.0004C49.4209 13.0935 49.798 14.025 50.5468 14.7661C51.2919 15.5077 52.211 15.8822 53.2761 15.8813C54.3853 15.8822 55.3054 15.5132 56.0037 14.7787L55.917 14.6957L56.0017 14.7806C56.6223 14.1595 56.9302 13.3205 56.9294 12.2925H56.8095H56.8096ZM62.3318 9.28497H59.0582V11.5679H62.0104V12.433H59.0582V14.7159H62.3318V15.6004H58.1353V8.40045H62.3318V9.28497Z" fill="white"/>
<path d="M62.3319 9.28577V9.16577H58.9385V11.6887H61.8906V12.3135L58.9384 12.3138V14.8367H62.212V15.4812H58.2552V8.52124H62.212V9.28577H62.3319V9.16577V9.28577H62.4517V8.28125H58.0156V15.7212H62.4517V14.5967H59.1781V12.5538H62.1302V11.4487H59.1781V9.40576H62.4517V9.28577H62.3319ZM66.227 15.6013H65.3027V9.28571H63.295V8.40119H68.2347V9.28571H66.227V15.6012" fill="white"/>
<path d="M66.2276 15.6013V15.4812H65.4231V9.16577H63.4154V8.5213H68.1155V9.16577H66.1078V15.6012H66.2276V15.4812V15.6012H66.3474V9.40576H68.3551V8.28125H63.1758V9.40571H65.1835V15.7212H66.3474V15.6012H66.2276V15.6013ZM71.8094 15.6013V8.40119H72.7327V15.6012H71.8094" fill="white"/>
<path d="M71.8073 15.6005H71.9271V8.52122H72.6107V15.4805H71.8073V15.6005H71.9271H71.8073V15.7204H72.8503V8.28125H71.6875V15.7204H71.8073V15.6005V15.6005ZM76.8273 15.6005H75.9032V9.28561H73.8957V8.40118H78.8349V9.28561H76.8273V15.6004" fill="white"/>
<path d="M76.829 15.5996V15.4796H76.0245V9.16411H74.017V8.51964H78.7169V9.16411H76.7092V15.5996H76.829V15.4796V15.5996H76.9489V9.4041H78.9565V8.27959H73.7773V9.40405H75.7849V15.7195H76.9489V15.5995H76.829V15.5996ZM83.5991 14.0664C84.1311 14.6058 84.7822 14.8753 85.552 14.8753C86.3219 14.8753 86.9733 14.6058 87.5045 14.0664C88.037 13.5269 88.3038 12.8372 88.3038 11.9996C88.3038 11.162 88.037 10.4724 87.5045 9.93284C86.9733 9.39332 86.3219 9.12377 85.552 9.12377C84.7822 9.12377 84.1311 9.39332 83.5991 9.93284C83.0679 10.4724 82.8012 11.162 82.8012 11.9996C82.8012 12.8372 83.0679 13.5269 83.5991 14.0664ZM88.1877 14.6691C87.481 15.397 86.6022 15.7604 85.552 15.7604C84.5009 15.7604 83.6224 15.397 82.9172 14.6691C82.21 13.942 81.8581 13.052 81.8581 11.9996C81.8581 10.9472 82.21 10.057 82.9172 9.33006C83.6224 8.60199 84.5009 8.23828 85.552 8.23828C86.5966 8.23828 87.4731 8.60393 88.1831 9.33475C88.8921 10.0655 89.2468 10.9538 89.2468 11.9996C89.2468 13.052 88.8929 13.942 88.1877 14.6691Z" fill="white"/>
<path d="M83.599 14.0672L83.5138 14.1516C84.0656 14.7127 84.754 14.9977 85.552 14.9962C86.3494 14.9977 87.0387 14.7127 87.5896 14.1516C88.1451 13.5899 88.4244 12.8634 88.4236 12.0004C88.4244 11.1375 88.1451 10.4109 87.5896 9.8493C87.0387 9.2882 86.3494 9.00323 85.552 9.00463C84.754 9.00323 84.0656 9.2882 83.5138 9.8493C82.9597 10.4109 82.6798 11.1375 82.6813 12.0004C82.6798 12.8633 82.9597 13.5899 83.5138 14.1516L83.599 14.0672L83.6842 13.9828C83.176 13.4648 82.9218 12.8132 82.9209 12.0004C82.9218 11.1877 83.176 10.5361 83.6842 10.0181C84.197 9.50015 84.8096 9.24608 85.552 9.24468C86.2937 9.24608 86.9077 9.50015 87.4193 10.0181C87.9284 10.5361 88.1825 11.1877 88.1835 12.0004C88.1825 12.8132 87.9284 13.4648 87.4193 13.9828C86.9077 14.5008 86.2937 14.7548 85.552 14.7562C84.8096 14.7548 84.197 14.5008 83.6842 13.9828L83.599 14.0672ZM88.1877 14.67L88.102 14.5866C87.4151 15.2916 86.575 15.6399 85.552 15.6413C84.5285 15.6398 83.6884 15.2916 83.0027 14.5866L82.9995 14.5828L83.0027 14.5866C82.3172 13.8792 81.9789 13.0261 81.9779 12.0004C81.9789 10.9748 82.3172 10.1217 83.0027 9.41435C83.6884 8.70931 84.5284 8.36059 85.552 8.35919C86.5684 8.36059 87.4065 8.71077 88.0973 9.41947C88.7853 10.1301 89.1255 10.9818 89.127 12.0004C89.1255 13.0261 88.7862 13.8792 88.102 14.5866L88.1877 14.67L88.2738 14.7533C89.0001 14.0062 89.3674 13.0795 89.3666 12.0004C89.3675 10.9275 88.9987 10.0027 88.269 9.25223C87.539 8.49882 86.6246 8.11785 85.552 8.11914C84.4737 8.11785 83.5565 8.49704 82.831 9.24754V9.247C82.1033 9.99464 81.7373 10.9214 81.7383 12.0004C81.7373 13.0795 82.1033 14.0062 82.831 14.7538L82.8343 14.7572L82.831 14.7533C83.5565 15.5038 84.4737 15.8822 85.552 15.8813C86.6297 15.8822 87.547 15.5038 88.2738 14.7533L88.1877 14.67ZM90.543 15.6005V8.40039H91.6672L95.1608 14.0015H95.2006L95.1608 12.614V8.40039H96.0851V15.6004H95.121L91.466 9.72785H91.4262L91.466 11.1159V15.6004H90.5431" fill="white"/>
<path d="M90.5453 15.6013H90.6651V8.52124H91.603L95.0965 14.1223H95.3258L95.2828 12.613V8.5213H95.9675V15.4812H95.1897L91.5347 9.6087H91.3054L91.3484 11.1187V15.4812H90.5453V15.6012H90.6651H90.5453V15.7212H91.588V11.1148L91.5482 9.72547L91.4284 9.7287V9.8487H91.4682V9.7287L91.3666 9.7925L95.0568 15.7212H96.2071V8.28125H95.0432V12.6162L95.083 14.0056L95.2028 14.0023V13.8824H95.163V14.0023L95.2646 13.9387L91.7358 8.28125H90.4256V15.7212H90.5454V15.6012L90.5453 15.6013ZM128.117 36.0012H130.353V20.9998H128.117L128.117 36.0012ZM148.253 26.4037L145.69 32.9076H145.614L142.954 26.4036H140.546L144.534 35.494L142.26 40.5505H144.593L150.739 26.4036L148.253 26.4037ZM135.575 34.2974C134.842 34.2974 133.821 33.9308 133.821 33.0233C133.821 31.8654 135.094 31.4216 136.191 31.4216C137.175 31.4216 137.636 31.6339 138.234 31.9237C138.06 33.313 136.865 34.2974 135.575 34.2974ZM135.845 26.0755C134.226 26.0755 132.55 26.7898 131.856 28.3724L133.84 29.2021C134.265 28.3724 135.054 28.1019 135.883 28.1019C137.039 28.1019 138.215 28.797 138.234 30.0322V30.1865C137.829 29.9548 136.963 29.6075 135.902 29.6075C133.764 29.6075 131.586 30.7845 131.586 32.9848C131.586 34.9921 133.34 36.2853 135.304 36.2853C136.808 36.2853 137.636 35.6098 138.157 34.8186H138.234V35.9764H140.391V30.2248C140.391 27.5619 138.407 26.0755 135.845 26.0755ZM122.029 28.2298H118.849V23.0877H122.029C123.7 23.0877 124.649 24.4737 124.649 25.6587C124.649 26.8212 123.7 28.2298 122.029 28.2298ZM121.971 20.9998H116.615V36.0012H118.849V30.3177H121.971C124.449 30.3177 126.884 28.5209 126.884 25.6587C126.884 22.7966 124.449 20.9998 121.971 20.9998ZM92.7612 34.3002C91.2168 34.3002 89.9238 33.005 89.9238 31.2261C89.9238 29.4285 91.2168 28.1136 92.7612 28.1136C94.286 28.1136 95.4827 29.4285 95.4827 31.2261C95.4827 33.005 94.286 34.3002 92.7613 34.3002H92.7612ZM95.3282 27.2437H95.251C94.7493 26.6445 93.7838 26.1032 92.568 26.1032C90.0202 26.1032 87.6849 28.3456 87.6849 31.2261C87.6849 34.0874 90.0202 36.3106 92.568 36.3106C93.7838 36.3106 94.7493 35.7692 95.251 35.1509H95.3282V35.8855C95.3282 37.8383 94.286 38.8822 92.6068 38.8822C91.2365 38.8822 90.3872 37.8959 90.0394 37.0648L88.0903 37.8767C88.65 39.23 90.1363 40.8927 92.6068 40.8927C95.2318 40.8927 97.4515 39.3458 97.4515 35.5761V26.4125H95.3282V27.2437ZM98.9954 36.0012H101.234V20.9993H98.9954V36.0012ZM104.535 31.0522C104.477 29.0801 106.06 28.0751 107.198 28.0751C108.087 28.0751 108.839 28.5195 109.09 29.1581L104.535 31.0522ZM111.483 29.3511C111.059 28.2101 109.765 26.1032 107.121 26.1032C104.496 26.1032 102.315 28.1717 102.315 31.2069C102.315 34.0682 104.477 36.3106 107.372 36.3106C109.708 36.3106 111.059 34.88 111.619 34.0488L109.882 32.8887C109.303 33.7395 108.511 34.3002 107.372 34.3002C106.233 34.3002 105.423 33.778 104.901 32.7537L111.715 29.9309L111.483 29.3511ZM57.2013 27.6692V29.8344H62.3739C62.2195 31.0522 61.8142 31.9414 61.1965 32.5601C60.444 33.3144 59.2665 34.1455 57.2013 34.1455C54.0165 34.1455 51.5268 31.5743 51.5268 28.3845C51.5268 25.1947 54.0165 22.6232 57.2013 22.6232C58.9192 22.6232 60.1735 23.3 61.1 24.1699L62.6248 22.6428C61.3318 21.4053 59.6138 20.458 57.2013 20.458C52.8391 20.458 49.1719 24.0153 49.1719 28.3845C49.1719 32.7537 52.8391 36.3106 57.2013 36.3106C59.5562 36.3106 61.3318 35.5377 62.7213 34.0874C64.1496 32.6567 64.5937 30.6463 64.5937 29.0225C64.5937 28.5195 64.5553 28.0559 64.4776 27.6692H57.2013ZM70.4745 34.3002C68.9301 34.3002 67.5982 33.0242 67.5982 31.2069C67.5982 29.3703 68.9301 28.1136 70.4745 28.1136C72.0183 28.1136 73.3502 29.3703 73.3502 31.2069C73.3502 33.0242 72.0183 34.3002 70.4745 34.3002ZM70.4745 26.1032C67.6562 26.1032 65.3593 28.249 65.3593 31.2069C65.3593 34.1455 67.6562 36.3106 70.4745 36.3106C73.2923 36.3106 75.5892 34.1455 75.5892 31.2069C75.5892 28.249 73.2923 26.1032 70.4745 26.1032ZM81.6323 34.3002C80.0885 34.3002 78.7565 33.0242 78.7565 31.2069C78.7565 29.3703 80.0885 28.1136 81.6323 28.1136C83.1763 28.1136 84.5081 29.3703 84.5081 31.2069C84.5081 33.0242 83.1763 34.3002 81.6323 34.3002H81.6323ZM81.6323 26.1032C78.8141 26.1032 76.5177 28.249 76.5177 31.2069C76.5177 34.1455 78.8141 36.3106 81.6323 36.3106C84.4502 36.3106 86.7471 34.1455 86.7471 31.2069C86.7471 28.249 84.4502 26.1032 81.6323 26.1032H81.6323Z" fill="white"/>
<path d="M12.5913 9.13368C12.1892 9.49702 11.9492 10.103 11.9492 10.9075V10.7256V37.2709V37.0961C11.9492 37.839 12.1551 38.4127 12.5037 38.7822L12.5927 38.8675V38.8679C12.8748 39.1229 13.2367 39.2583 13.6513 39.2579C14.0565 39.2579 14.5124 39.1285 14.9935 38.8553L32.3836 28.9586L38.357 25.5587C39.1157 25.127 39.5416 24.5702 39.6127 24.0029V24.0006C39.5416 23.4321 39.1157 22.8756 38.3571 22.4439L32.3831 19.0445L14.9936 9.14771C14.5114 8.87401 14.0552 8.74414 13.649 8.74414C13.2348 8.74414 12.8734 8.87913 12.5914 9.13368H12.5913Z" fill="#00C1FF"/>
<path d="M12.5927 38.8672L12.5037 38.7819C12.1551 38.4124 11.9492 37.8387 11.9492 37.0958V37.2706V10.7319V10.9072C11.9492 10.1027 12.1892 9.4967 12.5913 9.13337L27.435 24.0008L12.5927 38.8672Z" fill="url(#paint0_linear_8521_126979)"/>
<path d="M32.3822 28.957L27.4336 23.9996L32.3818 19.043L38.3556 22.4423C39.1142 22.8741 39.5401 23.4305 39.6113 23.9991V24.0014C39.5401 24.5686 39.1142 25.1256 38.3556 25.5572L32.3822 28.957" fill="url(#paint1_linear_8521_126979)"/>
<path d="M13.6484 39.2578C13.2338 39.2582 12.872 39.1227 12.5898 38.8677V38.8674L27.4322 24.0009L32.3808 28.9584L14.9906 38.8552C14.5095 39.1284 14.0536 39.2578 13.6484 39.2578Z" fill="url(#paint2_linear_8521_126979)"/>
<path d="M27.4337 24.002L12.5898 9.13455C12.872 8.88 13.2333 8.74501 13.6475 8.74501C14.0537 8.74501 14.51 8.87482 14.9921 9.14857L32.3818 19.0453L27.4336 24.002" fill="url(#paint3_linear_8521_126979)"/>
<path d="M13.6519 39.4336C13.2373 39.4336 12.875 39.2981 12.5928 39.0431L12.5924 39.0436C12.5912 39.0424 12.5899 39.0413 12.5886 39.0403L12.5115 38.9648C12.509 38.9625 12.5068 38.9597 12.5039 38.957L12.5929 38.8678C12.8751 39.1228 13.2368 39.2583 13.6516 39.2578C14.0567 39.2578 14.5126 39.1285 14.9937 38.8552L32.3838 28.9584L32.4952 29.0701L32.3824 29.1343L14.9936 39.0305C14.5552 39.2794 14.1381 39.4092 13.7614 39.4308C13.7249 39.4326 13.6884 39.4335 13.6519 39.4335" fill="url(#paint4_linear_8521_126979)"/>
<path d="M12.5036 38.957C12.1551 38.5876 11.9492 38.0144 11.9492 37.2711V37.0963C11.9492 37.8391 12.1551 38.4128 12.5036 38.7822L12.5926 38.8675L12.5036 38.957Z" fill="url(#paint5_linear_8521_126979)"/>
<path d="M32.4942 29.0703L32.3828 28.9586L38.3556 25.5592C39.1141 25.1276 39.54 24.5707 39.6112 24.0036C39.6112 24.2117 39.5648 24.4198 39.4727 24.6223C39.2869 25.0306 38.9144 25.4163 38.3556 25.7345L32.4942 29.0703" fill="url(#paint6_linear_8521_126979)"/>
<path d="M39.6116 24C39.5405 23.4315 39.1146 22.8751 38.3561 22.4434L32.3828 19.0444L32.4942 18.9328H32.4947L38.3561 22.2686C39.1924 22.7448 39.6112 23.3723 39.6116 24Z" fill="url(#paint7_linear_8521_126979)"/>
<path d="M11.9492 10.9062V10.7229C11.9492 10.6568 11.951 10.5921 11.9544 10.5294V10.5265C11.9544 10.5256 11.9544 10.5247 11.9547 10.5238V10.5167C11.9908 9.87687 12.1892 9.37779 12.5036 9.04454L12.5912 9.1326C12.1892 9.49594 11.9492 10.1019 11.9492 10.9062Z" fill="url(#paint8_linear_8521_126979)"/>
<path d="M32.3833 19.043L14.9937 9.14611C14.5116 8.87241 14.0554 8.7426 13.6491 8.7426C13.2349 8.7426 12.8736 8.87759 12.5915 9.13214L12.5039 9.04402C12.5313 9.01502 12.5597 8.98704 12.5891 8.96016C12.59 8.95919 12.5915 8.95822 12.5924 8.9573C12.8723 8.70469 13.2298 8.5697 13.6403 8.56727H13.6491C14.0554 8.56727 14.5116 8.69714 14.9937 8.97094L32.4952 18.931L32.4947 18.9313L32.3833 19.043Z" fill="url(#paint9_linear_8521_126979)"/>
<defs>
<linearGradient id="paint0_linear_8521_126979" x1="21.4353" y1="10.4514" x2="8.64328" y2="23.264" gradientUnits="userSpaceOnUse">
<stop stop-color="#00A0FF"/>
<stop offset="0.00657" stop-color="#00A1FF"/>
<stop offset="0.2601" stop-color="#00BEFF"/>
<stop offset="0.5122" stop-color="#00D2FF"/>
<stop offset="0.7604" stop-color="#00DFFF"/>
<stop offset="1" stop-color="#00E3FF"/>
</linearGradient>
<linearGradient id="paint1_linear_8521_126979" x1="40.5356" y1="23.9139" x2="11.5461" y2="23.9139" gradientUnits="userSpaceOnUse">
<stop stop-color="#FFE000"/>
<stop offset="0.4087" stop-color="#FFBD00"/>
<stop offset="0.7754" stop-color="#FFA500"/>
<stop offset="1" stop-color="#FF9C00"/>
</linearGradient>
<linearGradient id="paint2_linear_8521_126979" x1="29.7535" y1="28.7143" x2="8.07647" y2="50.2676" gradientUnits="userSpaceOnUse">
<stop stop-color="#FF3A44"/>
<stop offset="1" stop-color="#C31162"/>
</linearGradient>
<linearGradient id="paint3_linear_8521_126979" x1="8.76418" y1="6.93039" x2="18.4251" y2="16.551" gradientUnits="userSpaceOnUse">
<stop stop-color="#32A071"/>
<stop offset="0.0685" stop-color="#2DA771"/>
<stop offset="0.4762" stop-color="#15CF74"/>
<stop offset="0.8009" stop-color="#06E775"/>
<stop offset="1" stop-color="#00F076"/>
</linearGradient>
<linearGradient id="paint4_linear_8521_126979" x1="29.7458" y1="32.1531" x2="12.3857" y2="49.5412" gradientUnits="userSpaceOnUse">
<stop stop-color="#CC2E36"/>
<stop offset="1" stop-color="#9C0E4E"/>
</linearGradient>
<linearGradient id="paint5_linear_8521_126979" x1="13.9264" y1="10.4547" x2="2.65804" y2="21.7414" gradientUnits="userSpaceOnUse">
<stop stop-color="#008DE0"/>
<stop offset="0.00657" stop-color="#008DE0"/>
<stop offset="0.2601" stop-color="#00A7E0"/>
<stop offset="0.5122" stop-color="#00B8E0"/>
<stop offset="0.7604" stop-color="#00C4E0"/>
<stop offset="1" stop-color="#00C7E0"/>
</linearGradient>
<linearGradient id="paint6_linear_8521_126979" x1="40.5354" y1="24.0025" x2="11.5489" y2="24.0025" gradientUnits="userSpaceOnUse">
<stop stop-color="#E0C500"/>
<stop offset="0.4087" stop-color="#E0A600"/>
<stop offset="0.7754" stop-color="#E09100"/>
<stop offset="1" stop-color="#E08900"/>
</linearGradient>
<linearGradient id="paint7_linear_8521_126979" x1="40.5359" y1="24.0012" x2="11.5495" y2="24.0012" gradientUnits="userSpaceOnUse">
<stop stop-color="#FFE840"/>
<stop offset="0.4087" stop-color="#FFCE40"/>
<stop offset="0.7754" stop-color="#FFBC40"/>
<stop offset="1" stop-color="#FFB540"/>
</linearGradient>
<linearGradient id="paint8_linear_8521_126979" x1="13.9142" y1="10.4709" x2="3.06075" y2="20.8709" gradientUnits="userSpaceOnUse">
<stop stop-color="#40B8FF"/>
<stop offset="0.00657" stop-color="#40B9FF"/>
<stop offset="0.2601" stop-color="#40CEFF"/>
<stop offset="0.5122" stop-color="#40DDFF"/>
<stop offset="0.7604" stop-color="#40E7FF"/>
<stop offset="1" stop-color="#40EAFF"/>
</linearGradient>
<linearGradient id="paint9_linear_8521_126979" x1="8.74414" y1="10.0722" x2="16.4962" y2="17.8368" gradientUnits="userSpaceOnUse">
<stop stop-color="#65B895"/>
<stop offset="0.0685" stop-color="#62BD95"/>
<stop offset="0.4762" stop-color="#50DB97"/>
<stop offset="0.8009" stop-color="#44ED98"/>
<stop offset="1" stop-color="#40F498"/>
</linearGradient>
</defs>
</svg>
