<svg
class="h-7 w-7"
xmlns="http://www.w3.org/2000/svg"
viewBox="0 0 249.3 32.7">
    <g fill="#fff">
        <path d="m9.9 1.7v8.5h4.4v8.8h-4.4c0 1.8.3 3 1 3.7s1.9 1 3.6 1v8.8c-.5 0-.9 0-1.1 0-2.2 0-4.4-.5-6.4-1.3-1.9-.8-3.5-2-4.8-3.6-1.5-2.2-2.3-4.9-2.2-7.6v-18.3z"/>
        <path d="m29.1 9.9v22.2h-9.9v-22.2zm-4.9-9.9c1.3 0 2.5.4 3.5 1.2.9.7 1.5 1.7 1.5 2.8s-.5 2.2-1.4 2.9c-1 .8-2.3 1.2-3.6 1.1-1.3.1-2.5-.3-3.6-1.1-1.6-1.2-1.9-3.4-.7-4.9.2-.3.5-.5.8-.7 1-.9 2.2-1.3 3.5-1.3z"/>
        <path d="m43.9 1.7v30.4h-9.9v-30.4zm15.2 8.2-4.9 8.1 7.2 14.1h-11l-6.2-14.5 4.5-7.7z"/>
        <path d="m74.1 9.9v22.2h-9.9v-22.2zm-4.9-9.9c1.3 0 2.5.4 3.5 1.2.9.7 1.5 1.7 1.5 2.8s-.5 2.2-1.4 2.9c-2.1 1.5-5 1.5-7.1 0-.9-.7-1.4-1.7-1.4-2.9 0-1.1.6-2.2 1.5-2.8.9-.8 2.1-1.2 3.4-1.2z"/>
        <path d="m87.8 1.7v8.5h4.4v8.8h-4.4c0 1.8.3 3 1 3.7s1.9 1 3.6 1v8.8c-.5 0-.9 0-1.1 0-2.2 0-4.3-.4-6.3-1.3-1.9-.8-3.5-2-4.8-3.6-1.6-2.2-2.4-4.9-2.3-7.6v-18.3z"/>
        <path d="m111.8 23.8v8.6c-.7.1-1.5.2-2.2.2-3.6.1-7.1-1-9.9-3.3-4.5-3.6-5.3-10.2-1.7-14.8.5-.6 1.1-1.2 1.7-1.7 2.7-2.3 6.2-3.5 9.8-3.4 4.3 0 7.6 1.1 10.1 3.2 2.5 2.2 3.9 5.3 3.7 8.6v10.9h-9.9v-10.3c.1-1-.3-2-1-2.8-.7-.7-1.7-1.1-2.7-1-1 0-1.9.3-2.7 1-1.3 1-1.5 2.8-.5 4.1.1.2.3.3.4.4.7.6 1.7.9 2.6.9.7 0 1.5-.2 2.3-.6z"/>
        <path d="m136.9 1.7v30.4h-9.9v-30.4zm15.2 8.2-4.8 8.1 7.2 14.1h-11l-6.2-14.5 4.5-7.7z"/>
        <path d="m169.9 23.8v8.6c-.7.1-1.5.2-2.2.2-3.6.1-7.1-1-9.9-3.3-4.5-3.6-5.3-10.2-1.7-14.8.5-.6 1.1-1.2 1.7-1.7 2.7-2.3 6.2-3.5 9.8-3.4 4.3 0 7.6 1.1 10.1 3.2 2.5 2.2 3.9 5.3 3.7 8.6v10.9h-9.9v-10.3c.1-1-.3-2-1-2.8-.7-.7-1.7-1.1-2.7-1-1 0-1.9.3-2.7 1-1.3 1-1.5 2.8-.5 4.1.1.2.3.3.4.4.7.6 1.7.9 2.6.9.7 0 1.6-.2 2.3-.6z"/>
    </g>
    <path d="m191.3 22.8c0 2.7.1 3 .6 3h3.9c.4 0 .6-.2.6-2.9s-.1-2.9-.6-2.9h-4.6v-6.5h4.4c.4 0 .6-.2.6-2.6s-.1-2.5-.6-2.5h-3.4c-.4 0-.6.2-.6 2.6v.5h-5.9v-2.2c0-5.7 1.4-7.7 4.2-7.7h7.8c2.9 0 4.2 1.9 4.2 7.7 0 4.9-.3 6.8-2.4 7.4 2.2.3 2.7 2.8 2.7 7.6 0 6.1-1.4 8-4.2 8h-8.3c-2.9 0-4.2-1.9-4.2-8v-1.8h5.9v.3z" fill="#c00"/>
    <path d="m215.3 9.1c0-.6-.1-.8-.6-.8h-3.4c-.4 0-.6.2-.6.8v6.9c.7-1.1 1.8-3.2 4.9-3.2 4.3 0 5.7 1.9 5.7 6v7.6c0 4-1.4 6-4.2 6h-8c-2.9 0-4.2-1.9-4.2-6v-18.8c0-4 1.4-6 4.2-6h7.8c2.9 0 4.2 1.9 4.2 6v3.2h-5.9v-1.7zm-4.5 15.8c0 .6.1.8.6.8h3.6c.4 0 .6-.2.6-.8v-4.8c0-.6-.2-.8-1-.8-1.7 0-2.4.4-3.8 1.4z" fill="#c00"/>
    <path d="m228.6 32.4c-2.9 0-4.2-1.9-4.2-6v-18.8c0-4 1.4-6 4.2-6h8.5c2.9 0 4.2 1.9 4.2 6v18.8c0 4-1.4 6-4.2 6zm1.6-7.6c0 .6.1.8.6.8h4.1c.4 0 .6-.2.6-.8v-15.5c0-.6-.1-.8-.6-.8h-4.1c-.4 0-.6.2-.6.8z" fill="#c00"/>
    <path d="m244.2 11c-1.3 0-1.9-.8-1.9-2.6v-4c0-1.8.6-2.6 1.9-2.6h3.2c1.3 0 1.9.8 1.9 2.6v4c0 1.8-.6 2.6-1.9 2.6zm.7-6.5c-.3 0-.4.1-.4.5v2.6c0 .4.1.5.4.5h1.6c.3 0 .4-.1.4-.5v-2.6c0-.4-.1-.5-.4-.5z" fill="#c00"/>
</svg>
