<?xml version="1.0" encoding="utf-8"?>
<!-- Generator: Adobe Illustrator 28.1.0, SVG Export Plug-In . SVG Version: 6.00 Build 0)  -->
<svg version="1.1" id="Ebene_1" xmlns="http://www.w3.org/2000/svg" xmlns:xlink="http://www.w3.org/1999/xlink" x="0px" y="0px"
	 viewBox="0 0 201 75" style="enable-background:new 0 0 201 75;" xml:space="preserve">
<style type="text/css">
	.st0{fill:#FBC02D;}
	.st1{fill:#F4511E;}
	.st2{fill:#FFA000;}
	.st3{fill:#E64A19;}
	.st4{fill:#D84315;}
</style>
<g id="Page-1">
	<g id="_x34_04-Mars-Illustration" transform="translate(-299.000000, -153.000000)">
		<g id="main-content" transform="translate(218.000000, 152.000000)">
			<g id="_x34_04" transform="translate(81.000000, 0.000000)">
				<g id="Group" transform="translate(67.000000, 1.000000)">
					<g id="Vector">
						<g>
							
								<g id="path0_fill-link" transform="translate(34.026705, 37.235775) rotate(-74.247933) translate(-34.026705, -37.235775) translate(3.025380, 11.234649)">
								<path id="path0_fill" class="st0" d="M31,51.9c17.1,0,31-11.6,31-26C62,11.6,48.1,0,31,0C13.9,0,0,11.6,0,26
									C0,40.3,13.9,51.9,31,51.9z"/>
							</g>
						</g>
						<g transform="translate(8.000000, 10.000000)">
							<g id="path1_fill-link" transform="translate(0.725900, 0.235000)">
								<path id="path1_fill" class="st1" d="M12.1,0C7.2,3.7,3.3,9.5,1.3,16.8c-3.9,14.3,0.9,29.6,10.8,37.1l11.4,4.5
									c11.2,1,21.9-7.5,25.7-21.4c1.5-5.3,1.7-11,0.8-16.1c-8-1.2-17.2-4.7-20.2-9.8C26.2,5.3,18.7,1.5,12.1,0z"/>
							</g>
						</g>
						<g transform="translate(8.000000, 18.000000)">
							<g id="path2_fill-link" transform="translate(0.757000, 0.212000)">
								<path id="path2_fill" class="st2" d="M1.3,9C-3.1,25.6,4,43.4,17.3,49c13.3,5.5,27.5-3.3,32-19.9c0.9-3.7,1.5-7.5,1.3-11.1
									c-5.5-3-12-4.7-16.9-3C26.4,17.3,10.5,7.5,5,0C3.4,2.7,2.2,5.7,1.3,9z"/>
							</g>
						</g>
						<g transform="translate(8.000000, 33.000000)">
							<g id="path3_fill-link" transform="translate(0.801200, 0.335000)">
								<path id="path3_fill" class="st0" d="M0.2,0c-1.5,14.6,5.5,28.9,17,33.7c10.9,4.7,22.6-0.7,28.9-12
									c-8.5-0.8-19.1-4.5-22.6-10C18.7,4.3,7.5,0.2,0.2,0z"/>
							</g>
						</g>
						<g transform="translate(9.000000, 46.000000)">
							<g id="path4_fill-link" transform="translate(0.793000, 0.131000)">
								<path id="path4_fill" class="st3" d="M16.2,20.9c9.2,3.8,18.7,0.8,25.4-6.8c-5.2-2.5-11-3.8-15.6-2.3C19.8,13.8,6.9,6.6,0,0
									C2.3,9.5,8.1,17.6,16.2,20.9z"/>
							</g>
						</g>
					</g>
				</g>
				<g id="path5_fill-link">
					
						<g transform="translate(100.787457, 38.582730) rotate(-0.395765) translate(-100.787457, -38.582730) translate(0.287471, 1.582735)">
						<path id="path5_fill" class="st4" d="M60.3,49.9c0-3.4,1.4-4.8,4.8-4.8h2c3.2,0,6.3-1.8,6.3-5.7c0-3.9-3.1-5.7-6.3-5.7h-2
							c-3.4,0-4.8-1.4-4.8-4.8l0-21.4c0-3.5-1.9-6.9-6.2-6.9c-4.4,0-6.3,3.4-6.3,6.9l0,21.4c0,3.4-1.4,4.8-4.8,4.8l-25.3,0
							c-3.4,0-4.8-1.4-4.8-4.8l0-21.4c0-3.5-1.9-6.9-6.3-6.9C2.3,0.6,0.4,4,0.4,7.5l0,23.1C0.4,40.8,4.6,45,14.8,45L43,45.1
							c3.4,0,4.8,1.4,4.8,4.8l0,16.6c0,3.5,1.9,6.9,6.3,6.9c4.3,0,6.2-3.4,6.2-6.9L60.3,49.9z M108.8,72c17,0,23.9-7,23.9-23.9V25.9
							C132.7,9,125.8,2,108.8,2L91.3,2c-17,0-23.9,7-23.9,23.9l0,22.2C67.4,65,74.3,72,91.3,72L108.8,72z M91.8,60.6
							c-8.4,0-11.9-3.5-11.9-11.8l0-23.6c0-8.3,3.5-11.8,11.9-11.8l16.5,0c8.4,0,11.9,3.5,11.9,11.8l0,23.6
							c0,8.3-3.5,11.8-11.9,11.8L91.8,60.6z M150.5,7.2c0-3.5-1.9-6.9-6.2-6.9c-4.4,0-6.3,3.4-6.3,6.9l0,59c0,3.5,1.9,6.9,6.3,6.9
							c4.3,0,6.2-3.4,6.2-6.9L150.5,7.2z"/>
					</g>
				</g>
			</g>
		</g>
	</g>
</g>
</svg>
