<?xml version="1.0" encoding="utf-8"?>
<!-- Generator: Adobe Illustrator 28.1.0, SVG Export Plug-In . SVG Version: 6.00 Build 0)  -->
<svg version="1.1" id="Ebene_1" xmlns="http://www.w3.org/2000/svg" xmlns:xlink="http://www.w3.org/1999/xlink" x="0px" y="0px"
	 viewBox="0 0 201 75" style="enable-background:new 0 0 201 75;" xml:space="preserve">
<style type="text/css">
	.st0{fill:#FBC02D;}
	.st1{fill:#F4511E;}
	.st2{fill:#FFA000;}
	.st3{fill:#E64A19;}
	.st4{fill:#D84315;}
</style>
<g id="Page-1">
	<g id="_x34_04-Mars-Illustration" transform="translate(-299.000000, -153.000000)">
		<g id="main-content" transform="translate(218.000000, 152.000000)">
			<g id="_x34_04" transform="translate(81.000000, 0.000000)">
				<g id="Group" transform="translate(67.000000, 1.000000)">
					<g id="Vector">
						<g>
							
								<g id="path0_fill-link" transform="translate(34.026705, 37.235775) rotate(-74.247933) translate(-34.026705, -37.235775) translate(3.025380, 11.234649)">
								<path id="path0_fill" class="st0" d="M29.9,48.1c17.1,0,31-11.6,31-26c0-14.3-13.9-26-31-26c-17.1,0-31,11.6-31,26
									C-1.1,36.5,12.8,48.1,29.9,48.1z"/>
							</g>
						</g>
						<g transform="translate(8.000000, 10.000000)">
							<g id="path1_fill-link" transform="translate(0.725900, 0.235000)">
								<path id="path1_fill" class="st1" d="M8.1,0C3.2,3.7-0.7,9.5-2.7,16.8C-6.5,31.1-1.7,46.4,8.1,53.8l11.4,4.5
									c11.2,1,21.9-7.5,25.7-21.4c1.5-5.3,1.7-11,0.8-16.1c-8-1.2-17.2-4.7-20.2-9.8C22.2,5.3,14.7,1.5,8.1,0z"/>
							</g>
						</g>
						<g transform="translate(8.000000, 18.000000)">
							<g id="path2_fill-link" transform="translate(0.757000, 0.212000)">
								<path id="path2_fill" class="st2" d="M-2.7,9C-7.1,25.6,0,43.4,13.3,49c13.3,5.5,27.5-3.3,32-19.9c0.9-3.7,1.5-7.5,1.3-11.1
									c-5.5-3-12-4.7-16.9-3C22.4,17.3,6.5,7.5,1,0C-0.6,2.7-1.8,5.7-2.7,9z"/>
							</g>
						</g>
						<g transform="translate(8.000000, 33.000000)">
							<g id="path3_fill-link" transform="translate(0.801200, 0.335000)">
								<path id="path3_fill" class="st0" d="M-3.8,0c-1.5,14.6,5.5,28.9,17,33.7c10.9,4.7,22.6-0.7,28.9-12
									c-8.5-0.8-19.1-4.5-22.6-10C14.7,4.3,3.5,0.2-3.8,0z"/>
							</g>
						</g>
						<g transform="translate(9.000000, 46.000000)">
							<g id="path4_fill-link" transform="translate(0.793000, 0.131000)">
								<path id="path4_fill" class="st3" d="M12.2,20.9c9.2,3.8,18.7,0.8,25.4-6.8c-5.2-2.5-11-3.8-15.6-2.3C15.8,13.8,2.9,6.6-4,0
									C-1.7,9.5,4.1,17.6,12.2,20.9z"/>
							</g>
						</g>
					</g>
				</g>
				<g id="path5_fill-link">
					
						<g transform="translate(100.787457, 38.582730) rotate(-0.395765) translate(-100.787457, -38.582730) translate(0.287471, 1.582735)">
						<path id="path5_fill" class="st4" d="M104.8,72c17,0,23.9-7,23.9-23.9l0-22.2C128.7,9,121.8,2,104.8,2L87.3,2
							c-17,0-23.9,7-23.9,23.9l0,22.2C63.4,65,70.3,72,87.3,72H104.8z M87.8,60.6c-8.4,0-11.9-3.5-11.9-11.8l0-23.6
							c0-8.3,3.5-11.8,11.9-11.8l16.5,0c8.4,0,11.9,3.5,11.9,11.8l0,23.6c0,8.3-3.5,11.8-11.9,11.8L87.8,60.6z"/>
					</g>
				</g>
			</g>
		</g>
	</g>
</g>
<g id="Page-1_00000043445265100130685270000007479877234584486333_">
	
		<g id="_x34_04-Mars-Illustration_00000170979110695914078130000012164141382549643143_" transform="translate(-299.000000, -153.000000)">
		<g id="main-content_00000150060738192939038770000011115932958791870378_" transform="translate(218.000000, 152.000000)">
			<g id="_x34_04_00000162335987721515676390000015229595944099162283_" transform="translate(81.000000, 0.000000)">
				<g id="Group_00000011711211486445646040000001061476748139194012_" transform="translate(67.000000, 1.000000)">
					<g id="Vector_00000091012157648969237280000017744853458441855155_">
						<g>
							
								<g id="path0_fill-link_00000152967508709821448650000011716945880853591986_" transform="translate(34.026705, 37.235775) rotate(-74.247933) translate(-34.026705, -37.235775) translate(3.025380, 11.234649)">
								<path id="path0_fill_00000104686603825249032960000018283673777130275472_" class="st0" d="M46.9,108.4
									c17.1,0,31-11.6,31-26c0-14.3-13.9-26-31-26c-17.1,0-31,11.6-31,26C15.9,96.8,29.8,108.4,46.9,108.4z"/>
							</g>
						</g>
						<g transform="translate(8.000000, 10.000000)">
							<g id="path1_fill-link_00000068652454081107460390000014649581081969525666_" transform="translate(0.725900, 0.235000)">
								<path id="path1_fill_00000029743609163937305720000004300151150672678565_" class="st1" d="M70.8,0C65.9,3.7,62,9.5,60,16.8
									C56.2,31.1,61,46.4,70.8,53.8l11.4,4.5c11.2,1,21.9-7.5,25.7-21.4c1.5-5.3,1.7-11,0.8-16.1c-8-1.2-17.2-4.7-20.2-9.8
									C84.9,5.3,77.4,1.5,70.8,0z"/>
							</g>
						</g>
						<g transform="translate(8.000000, 18.000000)">
							<g id="path2_fill-link_00000029744602579167966150000015912526175565613463_" transform="translate(0.757000, 0.212000)">
								<path id="path2_fill_00000183962860293953741820000010177158232972250796_" class="st2" d="M60,9
									c-4.4,16.6,2.7,34.4,16,40.1c13.3,5.5,27.5-3.3,32-19.9c0.9-3.7,1.5-7.5,1.3-11.1c-5.5-3-12-4.7-16.9-3
									c-7.3,2.3-23.3-7.5-28.7-15C62.1,2.7,60.9,5.7,60,9z"/>
							</g>
						</g>
						<g transform="translate(8.000000, 33.000000)">
							<g id="path3_fill-link_00000036948069216541637680000012920364637647503769_" transform="translate(0.801200, 0.335000)">
								<path id="path3_fill_00000152963321729729294550000018177548343430793133_" class="st0" d="M58.9,0
									c-1.5,14.6,5.5,28.9,17,33.7c10.9,4.7,22.6-0.7,28.9-12c-8.5-0.8-19.1-4.5-22.6-10C77.4,4.3,66.2,0.2,58.9,0z"/>
							</g>
						</g>
						<g transform="translate(9.000000, 46.000000)">
							<g id="path4_fill-link_00000137835374437303535800000007300839307269533627_" transform="translate(0.793000, 0.131000)">
								<path id="path4_fill_00000111167179664082612320000006754642892138657695_" class="st3" d="M74.9,20.9
									c9.2,3.8,18.7,0.8,25.4-6.8c-5.2-2.5-11-3.8-15.6-2.3c-6.2,2-19.1-5.2-26.1-11.8C61,9.5,66.8,17.6,74.9,20.9z"/>
							</g>
						</g>
					</g>
				</g>
				<g id="path5_fill-link_00000133521178178910557670000006417342970349431726_">
					
						<g transform="translate(100.787457, 38.582730) rotate(-0.395765) translate(-100.787457, -38.582730) translate(0.287471, 1.582735)">
						<path id="path5_fill_00000094619213660301611190000002075378504748501135_" class="st4" d="M167.5,72.4c17,0,23.9-7,23.9-23.9
							V26.3c0-16.9-6.9-23.9-23.9-23.9l-17.5,0c-17,0-23.9,7-23.9,23.9l0,22.2c0,16.9,6.9,23.9,23.9,23.9L167.5,72.4z M150.5,61
							c-8.4,0-11.9-3.5-11.9-11.8V25.6c0-8.3,3.5-11.8,11.9-11.8l16.5,0c8.4,0,11.9,3.5,11.9,11.8v23.6c0,8.3-3.5,11.8-11.9,11.8
							L150.5,61z"/>
					</g>
				</g>
			</g>
		</g>
	</g>
</g>
<g>
	<path class="st4" d="M22,48.9c2.8,0,5,0.8,7.3,2.9c3.8,3.6,6.9,5.1,10.6,5.1c5.1,0,8.9-3.3,8.9-8.4c0-4.8-3.6-8-8.5-8
		c-2.6,0-5.8,1.1-8.9,3c-1.8,1.1-4,1.7-6.2,1.7c-6.1,0-11-4.1-10.6-9.8L16,13.3c0.4-6.3,4.3-9.5,11.7-9.5h28.5c5.8,0,9.1,3,9.1,8.2
		c0,5.1-3.2,8-9.1,8h-24l-0.7,10.5h1c2.5-3,7.7-4.8,13.6-4.8c13.5,0,22.3,8.9,22.3,22.4c0,15.6-11.2,25.3-29,25.3
		c-14,0-25.7-7-25.7-15.6C13.8,53,16.9,48.9,22,48.9z"/>
</g>
</svg>
