<?xml version="1.0" encoding="utf-8"?>
<!-- Generator: Adobe Illustrator 28.1.0, SVG Export Plug-In . SVG Version: 6.00 Build 0)  -->
<svg version="1.1" id="Ebene_1" xmlns="http://www.w3.org/2000/svg" xmlns:xlink="http://www.w3.org/1999/xlink" x="0px" y="0px"
	 viewBox="0 0 201 75" style="enable-background:new 0 0 201 75;" xml:space="preserve">
<style type="text/css">
	.st0{fill:#FBC02D;}
	.st1{fill:#F4511E;}
	.st2{fill:#FFA000;}
	.st3{fill:#E64A19;}
	.st4{fill:#D84315;}
</style>
<g id="Page-1">
	<g id="_x34_04-Mars-Illustration" transform="translate(-299.000000, -153.000000)">
		<g id="main-content" transform="translate(218.000000, 152.000000)">
			<g id="_x34_04" transform="translate(81.000000, 0.000000)">
				<g id="Group" transform="translate(67.000000, 1.000000)">
					<g id="Vector">
						<g>
							
								<g id="path0_fill-link" transform="translate(34.026705, 37.235775) rotate(-74.247933) translate(-34.026705, -37.235775) translate(3.025380, 11.234649)">
								<path id="path0_fill" class="st0" d="M29.9,48.1c17.1,0,31-11.6,31-26c0-14.3-13.9-26-31-26c-17.1,0-31,11.6-31,26
									C-1.1,36.5,12.8,48.1,29.9,48.1z"/>
							</g>
						</g>
						<g transform="translate(8.000000, 10.000000)">
							<g id="path1_fill-link" transform="translate(0.725900, 0.235000)">
								<path id="path1_fill" class="st1" d="M8.1,0C3.2,3.7-0.7,9.5-2.7,16.8C-6.5,31.1-1.7,46.4,8.1,53.8l11.4,4.5
									c11.2,1,21.9-7.5,25.7-21.4c1.5-5.3,1.7-11,0.8-16.1c-8-1.2-17.2-4.7-20.2-9.8C22.2,5.3,14.7,1.5,8.1,0z"/>
							</g>
						</g>
						<g transform="translate(8.000000, 18.000000)">
							<g id="path2_fill-link" transform="translate(0.757000, 0.212000)">
								<path id="path2_fill" class="st2" d="M-2.7,9C-7.1,25.6,0,43.4,13.3,49c13.3,5.5,27.5-3.3,32-19.9c0.9-3.7,1.5-7.5,1.3-11.1
									c-5.5-3-12-4.7-16.9-3C22.4,17.3,6.5,7.5,1,0C-0.6,2.7-1.8,5.7-2.7,9z"/>
							</g>
						</g>
						<g transform="translate(8.000000, 33.000000)">
							<g id="path3_fill-link" transform="translate(0.801200, 0.335000)">
								<path id="path3_fill" class="st0" d="M-3.8,0c-1.5,14.6,5.5,28.9,17,33.7c10.9,4.7,22.6-0.7,28.9-12
									c-8.5-0.8-19.1-4.5-22.6-10C14.7,4.3,3.5,0.2-3.8,0z"/>
							</g>
						</g>
						<g transform="translate(9.000000, 46.000000)">
							<g id="path4_fill-link" transform="translate(0.793000, 0.131000)">
								<path id="path4_fill" class="st3" d="M12.2,20.9c9.2,3.8,18.7,0.8,25.4-6.8c-5.2-2.5-11-3.8-15.6-2.3C15.8,13.8,2.9,6.6-4,0
									C-1.7,9.5,4.1,17.6,12.2,20.9z"/>
							</g>
						</g>
					</g>
				</g>
				<g id="path5_fill-link">
					
						<g transform="translate(100.787457, 38.582730) rotate(-0.395765) translate(-100.787457, -38.582730) translate(0.287471, 1.582735)">
						<path id="path5_fill" class="st4" d="M104.8,72c17,0,23.9-7,23.9-23.9l0-22.2C128.7,9,121.8,2,104.8,2L87.3,2
							c-17,0-23.9,7-23.9,23.9l0,22.2C63.4,65,70.3,72,87.3,72H104.8z M87.8,60.6c-8.4,0-11.9-3.5-11.9-11.8l0-23.6
							c0-8.3,3.5-11.8,11.9-11.8l16.5,0c8.4,0,11.9,3.5,11.9,11.8l0,23.6c0,8.3-3.5,11.8-11.9,11.8L87.8,60.6z"/>
					</g>
				</g>
			</g>
		</g>
	</g>
</g>
<g>
	<path class="st4" d="M22,48.9c2.8,0,5,0.8,7.3,2.9c3.8,3.6,6.9,5.1,10.6,5.1c5.1,0,8.9-3.3,8.9-8.4c0-4.8-3.6-8-8.5-8
		c-2.6,0-5.8,1.1-8.9,3c-1.8,1.1-4,1.7-6.2,1.7c-6.1,0-11-4.1-10.6-9.8L16,13.3c0.4-6.3,4.3-9.5,11.7-9.5h28.5c5.8,0,9.1,3,9.1,8.2
		c0,5.1-3.2,8-9.1,8h-24l-0.7,10.5h1c2.5-3,7.7-4.8,13.6-4.8c13.5,0,22.3,8.9,22.3,22.4c0,15.6-11.2,25.3-29,25.3
		c-14,0-25.7-7-25.7-15.6C13.8,53,16.9,48.9,22,48.9z"/>
</g>
<g>
	<path class="st4" d="M132,48.5c2.8,0,5.3,1.3,8.1,4.2c3.3,3.4,6.5,5,10.2,5c5.3,0,8.8-2.6,8.8-6.6s-3.5-6.7-8.8-6.7h-2.7
		c-4.1,0-7.1-3.2-7.1-7.7c0-4.2,2.9-7.6,7.1-7.6h2.7c4.3,0,7.5-2.5,7.5-5.9s-3.1-5.8-7.5-5.8c-3.4,0-6.2,1.3-9.8,4.8
		c-2.2,2.1-4.8,3.1-7.7,3.1c-4.7,0-8.2-3.2-8.2-7.5c0-8.5,11.9-15.6,26-15.6c15.8,0,26.6,7.6,26.6,18.5c0,7.2-5.4,13.3-12.2,14v1.4
		c8.1,0.4,13.9,7.1,13.9,15.8c0,12.2-11.9,20.8-28.6,20.8c-14.4,0-26.1-7.3-26.1-16.4C124.3,51.9,127.5,48.5,132,48.5z"/>
</g>
</svg>
